<svg width="72" height="25" viewBox="0 0 72 25" fill="none" xmlns="http://www.w3.org/2000/svg">
<path d="M14.4896 10.2843H11.2924C11.234 9.87064 11.1148 9.50323 10.9347 9.18205C10.7547 8.85601 10.5235 8.57862 10.2413 8.3499C9.95903 8.12118 9.63299 7.94599 9.26314 7.82433C8.89816 7.70268 8.50155 7.64185 8.07331 7.64185C7.29956 7.64185 6.62557 7.83407 6.05133 8.21851C5.4771 8.59809 5.03183 9.15285 4.71552 9.88281C4.3992 10.6079 4.24104 11.4887 4.24104 12.5253C4.24104 13.591 4.3992 14.4864 4.71552 15.2115C5.0367 15.9366 5.4844 16.484 6.05863 16.8539C6.63287 17.2237 7.29713 17.4087 8.05141 17.4087C8.47479 17.4087 8.86653 17.3527 9.22664 17.2408C9.59162 17.1288 9.91524 16.9658 10.1975 16.7517C10.4797 16.5327 10.7133 16.2675 10.8982 15.956C11.088 15.6446 11.2194 15.2894 11.2924 14.8903L14.4896 14.9049C14.4069 15.5911 14.2001 16.2529 13.8692 16.8904C13.5431 17.523 13.1027 18.0899 12.5479 18.5912C11.998 19.0876 11.3411 19.4817 10.5771 19.7737C9.81791 20.0608 8.95899 20.2044 8.00032 20.2044C6.66693 20.2044 5.47467 19.9027 4.42353 19.2992C3.37726 18.6958 2.54998 17.8223 1.94168 16.6787C1.33825 15.5351 1.03654 14.1506 1.03654 12.5253C1.03654 10.895 1.34312 9.5081 1.95628 8.3645C2.56945 7.2209 3.40159 6.34982 4.45273 5.75126C5.50387 5.14783 6.6864 4.84611 8.00032 4.84611C8.86653 4.84611 9.66948 4.96777 10.4092 5.21109C11.1537 5.45441 11.8131 5.80966 12.3874 6.27683C12.9616 6.73913 13.4288 7.30607 13.7889 7.97763C14.1538 8.64918 14.3874 9.41807 14.4896 10.2843Z" fill="white"/>
<path d="M15.9609 20V8.78788H18.9756V10.7442H19.0924C19.2968 10.0483 19.6399 9.5227 20.1216 9.16745C20.6034 8.80734 21.1582 8.62729 21.7859 8.62729C21.9417 8.62729 22.1096 8.63702 22.2896 8.65648C22.4697 8.67595 22.6278 8.70272 22.7641 8.73678V11.496C22.6181 11.4522 22.4161 11.4133 22.1582 11.3792C21.9003 11.3452 21.6643 11.3281 21.4502 11.3281C20.9927 11.3281 20.584 11.4279 20.2238 11.6274C19.8686 11.8221 19.5863 12.0946 19.3771 12.445C19.1727 12.7953 19.0705 13.1992 19.0705 13.6567V20H15.9609Z" fill="white"/>
<path d="M28.7906 20.219C27.6372 20.219 26.6445 19.9854 25.8123 19.5182C24.9851 19.0462 24.3476 18.3795 23.8999 17.5181C23.4521 16.6519 23.2283 15.6276 23.2283 14.445C23.2283 13.2917 23.4521 12.2795 23.8999 11.4084C24.3476 10.5373 24.9778 9.85848 25.7904 9.37184C26.608 8.8852 27.5667 8.64189 28.6665 8.64189C29.4062 8.64189 30.0947 8.76111 30.7322 8.99956C31.3746 9.23315 31.9342 9.58596 32.4111 10.058C32.8929 10.53 33.2676 11.1237 33.5353 11.8391C33.8029 12.5496 33.9367 13.3817 33.9367 14.3355V15.1896H24.4692V13.2625H31.0096C31.0096 12.8148 30.9123 12.4182 30.7176 12.0727C30.523 11.7272 30.2529 11.4571 29.9074 11.2624C29.5667 11.0629 29.1701 10.9631 28.7176 10.9631C28.2455 10.9631 27.827 11.0726 27.462 11.2916C27.1019 11.5057 26.8197 11.7953 26.6153 12.1603C26.4109 12.5204 26.3063 12.9219 26.3014 13.3647V15.1969C26.3014 15.7517 26.4036 16.231 26.608 16.6349C26.8172 17.0388 27.1117 17.3503 27.4912 17.5692C27.8708 17.7882 28.321 17.8977 28.8417 17.8977C29.1872 17.8977 29.5035 17.8491 29.7906 17.7517C30.0777 17.6544 30.3235 17.5084 30.5279 17.3138C30.7322 17.1191 30.888 16.8807 30.995 16.5984L33.8711 16.7882C33.7251 17.4792 33.4258 18.0826 32.9732 18.5985C32.5255 19.1095 31.9464 19.5085 31.2359 19.7956C30.5303 20.0779 29.7152 20.219 28.7906 20.219Z" fill="white"/>
<path d="M40.8093 20.219C41.9626 20.219 42.9554 19.9854 43.7875 19.5182C44.6148 19.0462 45.2523 18.3795 45.7 17.5181C46.1477 16.6519 46.3716 15.6276 46.3716 14.445C46.3716 13.2917 46.1477 12.2795 45.7 11.4084C45.2523 10.5373 44.6221 9.85848 43.8094 9.37184C42.9919 8.8852 42.0332 8.64189 40.9334 8.64189C40.1937 8.64189 39.5051 8.76111 38.8676 8.99956C38.2253 9.23315 37.6656 9.58596 37.1887 10.058C36.7069 10.53 36.3322 11.1237 36.0646 11.8391C35.7969 12.5496 35.6631 13.3817 35.6631 14.3355V15.1896H45.1306V13.2625H38.5902C38.5902 12.8148 38.6876 12.4182 38.8822 12.0727C39.0769 11.7272 39.347 11.4571 39.6925 11.2624C40.0331 11.0629 40.4297 10.9631 40.8823 10.9631C41.3543 10.9631 41.7728 11.0726 42.1378 11.2916C42.4979 11.5057 42.7802 11.7953 42.9846 12.1603C43.189 12.5204 43.2936 12.9219 43.2984 13.3647V15.1969C43.2984 15.7517 43.1963 16.231 42.9919 16.6349C42.7826 17.0388 42.4882 17.3503 42.1086 17.5692C41.729 17.7882 41.2789 17.8977 40.7582 17.8977C40.4127 17.8977 40.0964 17.8491 39.8093 17.7517C39.5221 17.6544 39.2764 17.5084 39.072 17.3138C38.8676 17.1191 38.7119 16.8807 38.6048 16.5984L35.7288 16.7882C35.8748 17.4792 36.1741 18.0826 36.6266 18.5985C37.0744 19.1095 37.6535 19.5085 38.3639 19.7956C39.0696 20.0779 39.8847 20.219 40.8093 20.219Z" fill="white"/>
<path d="M52.2524 20.1825C51.4007 20.1825 50.6294 19.9635 49.9384 19.5255C49.2522 19.0827 48.7072 18.433 48.3033 17.5765C47.9043 16.7152 47.7047 15.6592 47.7047 14.4085C47.7047 13.1238 47.9116 12.0556 48.3252 11.204C48.7388 10.3475 49.2887 9.70762 49.9749 9.28425C50.6659 8.85601 51.4226 8.64189 52.2451 8.64189C52.8728 8.64189 53.396 8.74895 53.8145 8.96307C54.2378 9.17232 54.5785 9.4351 54.8364 9.75142C55.0992 10.0629 55.2987 10.3694 55.435 10.6712H55.5299V5.0505H58.6322V20H55.5664V18.2043H55.435C55.289 18.5158 55.0822 18.8248 54.8145 19.1314C54.5517 19.4331 54.2086 19.6837 53.7853 19.8832C53.3668 20.0827 52.8558 20.1825 52.2524 20.1825ZM53.2378 17.7079C53.739 17.7079 54.1624 17.5717 54.5079 17.2992C54.8583 17.0218 55.126 16.6349 55.3109 16.1385C55.5007 15.6422 55.5956 15.0606 55.5956 14.3939C55.5956 13.7272 55.5031 13.1481 55.3182 12.6566C55.1333 12.1651 54.8656 11.7856 54.5152 11.5179C54.1648 11.2503 53.739 11.1164 53.2378 11.1164C52.7268 11.1164 52.2962 11.2551 51.9458 11.5325C51.5954 11.8099 51.3302 12.1943 51.1501 12.6858C50.9701 13.1773 50.88 13.7467 50.88 14.3939C50.88 15.046 50.9701 15.6227 51.1501 16.1239C51.335 16.6203 51.6003 17.0096 51.9458 17.2919C52.2962 17.5692 52.7268 17.7079 53.2378 17.7079Z" fill="white"/>
<path d="M64.9507 20.219C63.7974 20.219 62.8046 19.9854 61.9725 19.5182C61.1452 19.0462 60.5077 18.3795 60.06 17.5181C59.6123 16.6519 59.3885 15.6276 59.3885 14.445C59.3885 13.2917 59.6123 12.2795 60.06 11.4084C60.5077 10.5373 61.1379 9.85848 61.9506 9.37184C62.7681 8.8852 63.7268 8.64189 64.8266 8.64189C65.5663 8.64189 66.2549 8.76111 66.8924 8.99956C67.5348 9.23315 68.0944 9.58596 68.5713 10.058C69.0531 10.53 69.4278 11.1237 69.6954 11.8391C69.9631 12.5496 70.0969 13.3817 70.0969 14.3355V15.1896H60.6294V13.2625H67.1698C67.1698 12.8148 67.0725 12.4182 66.8778 12.0727C66.6831 11.7272 66.4131 11.4571 66.0675 11.2624C65.7269 11.0629 65.3303 10.9631 64.8777 10.9631C64.4057 10.9631 63.9872 11.0726 63.6222 11.2916C63.2621 11.5057 62.9798 11.7953 62.7754 12.1603C62.5711 12.5204 62.4664 12.9219 62.4616 13.3647V15.1969C62.4616 15.7517 62.5638 16.231 62.7681 16.6349C62.9774 17.0388 63.2718 17.3503 63.6514 17.5692C64.031 17.7882 64.4811 17.8977 65.0018 17.8977C65.3473 17.8977 65.6636 17.8491 65.9508 17.7517C66.2379 17.6544 66.4836 17.5084 66.688 17.3138C66.8924 17.1191 67.0481 16.8807 67.1552 16.5984L70.0312 16.7882C69.8852 17.4792 69.5859 18.0826 69.1334 18.5985C68.6857 19.1095 68.1066 19.5085 67.3961 19.7956C66.6904 20.0779 65.8753 20.219 64.9507 20.219Z" fill="white"/>
</svg>
