<svg width="22" height="22" viewBox="0 0 22 22" fill="none" xmlns="http://www.w3.org/2000/svg">
<path d="M16.7276 10.0016C17.3096 15.378 19.5945 17.0028 19.5945 17.0028H1.59131C1.59131 17.0028 4.59183 14.8691 4.59183 7.40112C4.59183 5.70343 5.22408 4.07529 6.3495 2.87485C7.47492 1.6744 9.00131 1 10.5929 1C10.9302 1 11.2647 1.03031 11.5931 1.08951" stroke="white" stroke-width="1.38446" stroke-linecap="round" stroke-linejoin="round"/>
<path d="M17.594 7.00105C19.2512 7.00105 20.5946 5.65767 20.5946 4.00053C20.5946 2.34339 19.2512 1 17.594 1C15.9368 1 14.5935 2.34339 14.5935 4.00053C14.5935 5.65767 15.9368 7.00105 17.594 7.00105Z" stroke="white" stroke-width="1.38446" stroke-linecap="round" stroke-linejoin="round"/>
<path d="M12.3234 20.0029C12.1476 20.3061 11.8952 20.5577 11.5915 20.7326C11.2878 20.9075 10.9436 20.9996 10.5931 20.9996C10.2426 20.9996 9.89837 20.9075 9.59472 20.7326C9.29107 20.5577 9.03862 20.3061 8.86279 20.0029" stroke="white" stroke-width="1.38446" stroke-linecap="round" stroke-linejoin="round"/>
</svg>
